<svg xmlns="http://www.w3.org/2000/svg" viewBox="0 0 100 100">
  <rect width="100" height="100" rx="20" fill="#0f1419"/>
  <g fill="none" stroke="#06b6d4" stroke-linecap="round" stroke-linejoin="round">
    <!-- head -->
    <circle cx="40" cy="17" r="7" fill="#06b6d4" stroke="none"/>
    <!-- left leg (front stride): hip → knee → foot -->
    <polyline points="50,48 38,60 30,76" stroke-width="7" stroke="#0891b2"/>
    <!-- right arm (back): shoulder → elbow → hand -->
    <polyline points="45,31 57,40 62,48" stroke-width="5.5" stroke="#0891b2"/>
    <!-- neck -->
    <line x1="42" y1="24" x2="44" y2="29" stroke-width="5"/>
    <!-- torso — forward lean -->
    <line x1="44" y1="29" x2="50" y2="48" stroke-width="9"/>
    <!-- left arm (forward): shoulder → elbow → hand -->
    <polyline points="45,31 34,35 28,26" stroke-width="5.5"/>
    <!-- right leg (back stride): hip → knee → foot -->
    <polyline points="50,48 58,62 66,76" stroke-width="7"/>
  </g>
  <!-- speed lines -->
  <line x1="70" y1="22" x2="80" y2="22" stroke="#06b6d4" stroke-width="2.5" stroke-linecap="round" opacity="0.4"/>
  <line x1="72" y1="32" x2="82" y2="32" stroke="#06b6d4" stroke-width="2" stroke-linecap="round" opacity="0.3"/>
  <line x1="70" y1="42" x2="80" y2="42" stroke="#06b6d4" stroke-width="1.5" stroke-linecap="round" opacity="0.2"/>
  <!-- treadmill belt -->
  <rect x="14" y="80" width="72" height="6" rx="3" fill="#f59e42"/>
  <line x1="20" y1="83" x2="28" y2="83" stroke="#0f1419" stroke-width="1.5" stroke-linecap="round" opacity="0.5"/>
  <line x1="38" y1="83" x2="46" y2="83" stroke="#0f1419" stroke-width="1.5" stroke-linecap="round" opacity="0.5"/>
  <line x1="56" y1="83" x2="64" y2="83" stroke="#0f1419" stroke-width="1.5" stroke-linecap="round" opacity="0.5"/>
  <line x1="72" y1="83" x2="80" y2="83" stroke="#0f1419" stroke-width="1.5" stroke-linecap="round" opacity="0.5"/>
</svg>
